G04 #@! TF.FileFunction,Legend,Top*
%FSLAX46Y46*%
G04 Gerber Fmt 4.6, Leading zero omitted, Abs format (unit mm)*
G04 Created by KiCad (PCBNEW 4.0.6) date 05/11/17 00:54:59*
%MOMM*%
%LPD*%
G01*
G04 APERTURE LIST*
%ADD10C,0.100000*%
%ADD11C,0.200000*%
%ADD12C,0.300000*%
%ADD13C,0.120000*%
%ADD14C,0.150000*%
G04 APERTURE END LIST*
D10*
D11*
X163830000Y-88900000D02*
X133350000Y-88900000D01*
X163830000Y-111760000D02*
X163830000Y-88900000D01*
X133350000Y-111760000D02*
X163830000Y-111760000D01*
X133350000Y-88900000D02*
X133350000Y-111760000D01*
D12*
X144400000Y-107282143D02*
X144614286Y-107353571D01*
X144971429Y-107353571D01*
X145114286Y-107282143D01*
X145185715Y-107210714D01*
X145257143Y-107067857D01*
X145257143Y-106925000D01*
X145185715Y-106782143D01*
X145114286Y-106710714D01*
X144971429Y-106639286D01*
X144685715Y-106567857D01*
X144542857Y-106496429D01*
X144471429Y-106425000D01*
X144400000Y-106282143D01*
X144400000Y-106139286D01*
X144471429Y-105996429D01*
X144542857Y-105925000D01*
X144685715Y-105853571D01*
X145042857Y-105853571D01*
X145257143Y-105925000D01*
X145685714Y-106353571D02*
X146257143Y-106353571D01*
X145900000Y-105853571D02*
X145900000Y-107139286D01*
X145971428Y-107282143D01*
X146114286Y-107353571D01*
X146257143Y-107353571D01*
X147328571Y-107282143D02*
X147185714Y-107353571D01*
X146900000Y-107353571D01*
X146757143Y-107282143D01*
X146685714Y-107139286D01*
X146685714Y-106567857D01*
X146757143Y-106425000D01*
X146900000Y-106353571D01*
X147185714Y-106353571D01*
X147328571Y-106425000D01*
X147400000Y-106567857D01*
X147400000Y-106710714D01*
X146685714Y-106853571D01*
X148042857Y-106353571D02*
X148042857Y-107853571D01*
X148042857Y-106425000D02*
X148185714Y-106353571D01*
X148471428Y-106353571D01*
X148614285Y-106425000D01*
X148685714Y-106496429D01*
X148757143Y-106639286D01*
X148757143Y-107067857D01*
X148685714Y-107210714D01*
X148614285Y-107282143D01*
X148471428Y-107353571D01*
X148185714Y-107353571D01*
X148042857Y-107282143D01*
X149400000Y-107353571D02*
X149400000Y-105853571D01*
X150042857Y-107353571D02*
X150042857Y-106567857D01*
X149971428Y-106425000D01*
X149828571Y-106353571D01*
X149614286Y-106353571D01*
X149471428Y-106425000D01*
X149400000Y-106496429D01*
X151328571Y-107282143D02*
X151185714Y-107353571D01*
X150900000Y-107353571D01*
X150757143Y-107282143D01*
X150685714Y-107139286D01*
X150685714Y-106567857D01*
X150757143Y-106425000D01*
X150900000Y-106353571D01*
X151185714Y-106353571D01*
X151328571Y-106425000D01*
X151400000Y-106567857D01*
X151400000Y-106710714D01*
X150685714Y-106853571D01*
X152042857Y-106353571D02*
X152042857Y-107353571D01*
X152042857Y-106496429D02*
X152114285Y-106425000D01*
X152257143Y-106353571D01*
X152471428Y-106353571D01*
X152614285Y-106425000D01*
X152685714Y-106567857D01*
X152685714Y-107353571D01*
X155257143Y-107353571D02*
X154542857Y-107353571D01*
X154542857Y-105853571D01*
X156328571Y-107282143D02*
X156185714Y-107353571D01*
X155900000Y-107353571D01*
X155757143Y-107282143D01*
X155685714Y-107139286D01*
X155685714Y-106567857D01*
X155757143Y-106425000D01*
X155900000Y-106353571D01*
X156185714Y-106353571D01*
X156328571Y-106425000D01*
X156400000Y-106567857D01*
X156400000Y-106710714D01*
X155685714Y-106853571D01*
X157685714Y-106353571D02*
X157685714Y-107567857D01*
X157614285Y-107710714D01*
X157542857Y-107782143D01*
X157400000Y-107853571D01*
X157185714Y-107853571D01*
X157042857Y-107782143D01*
X157685714Y-107282143D02*
X157542857Y-107353571D01*
X157257143Y-107353571D01*
X157114285Y-107282143D01*
X157042857Y-107210714D01*
X156971428Y-107067857D01*
X156971428Y-106639286D01*
X157042857Y-106496429D01*
X157114285Y-106425000D01*
X157257143Y-106353571D01*
X157542857Y-106353571D01*
X157685714Y-106425000D01*
X159042857Y-106353571D02*
X159042857Y-107567857D01*
X158971428Y-107710714D01*
X158900000Y-107782143D01*
X158757143Y-107853571D01*
X158542857Y-107853571D01*
X158400000Y-107782143D01*
X159042857Y-107282143D02*
X158900000Y-107353571D01*
X158614286Y-107353571D01*
X158471428Y-107282143D01*
X158400000Y-107210714D01*
X158328571Y-107067857D01*
X158328571Y-106639286D01*
X158400000Y-106496429D01*
X158471428Y-106425000D01*
X158614286Y-106353571D01*
X158900000Y-106353571D01*
X159042857Y-106425000D01*
X160328571Y-107282143D02*
X160185714Y-107353571D01*
X159900000Y-107353571D01*
X159757143Y-107282143D01*
X159685714Y-107139286D01*
X159685714Y-106567857D01*
X159757143Y-106425000D01*
X159900000Y-106353571D01*
X160185714Y-106353571D01*
X160328571Y-106425000D01*
X160400000Y-106567857D01*
X160400000Y-106710714D01*
X159685714Y-106853571D01*
X144542857Y-110403571D02*
X144185714Y-110403571D01*
X144185714Y-108260714D01*
X144542857Y-108260714D01*
X146185714Y-109475000D02*
X146900000Y-109475000D01*
X146042857Y-109903571D02*
X146542857Y-108403571D01*
X147042857Y-109903571D01*
X149400000Y-109903571D02*
X148685714Y-109903571D01*
X148685714Y-108403571D01*
X150471428Y-109832143D02*
X150328571Y-109903571D01*
X150042857Y-109903571D01*
X149900000Y-109832143D01*
X149828571Y-109689286D01*
X149828571Y-109117857D01*
X149900000Y-108975000D01*
X150042857Y-108903571D01*
X150328571Y-108903571D01*
X150471428Y-108975000D01*
X150542857Y-109117857D01*
X150542857Y-109260714D01*
X149828571Y-109403571D01*
X151828571Y-108903571D02*
X151828571Y-110117857D01*
X151757142Y-110260714D01*
X151685714Y-110332143D01*
X151542857Y-110403571D01*
X151328571Y-110403571D01*
X151185714Y-110332143D01*
X151828571Y-109832143D02*
X151685714Y-109903571D01*
X151400000Y-109903571D01*
X151257142Y-109832143D01*
X151185714Y-109760714D01*
X151114285Y-109617857D01*
X151114285Y-109189286D01*
X151185714Y-109046429D01*
X151257142Y-108975000D01*
X151400000Y-108903571D01*
X151685714Y-108903571D01*
X151828571Y-108975000D01*
X153185714Y-108903571D02*
X153185714Y-110117857D01*
X153114285Y-110260714D01*
X153042857Y-110332143D01*
X152900000Y-110403571D01*
X152685714Y-110403571D01*
X152542857Y-110332143D01*
X153185714Y-109832143D02*
X153042857Y-109903571D01*
X152757143Y-109903571D01*
X152614285Y-109832143D01*
X152542857Y-109760714D01*
X152471428Y-109617857D01*
X152471428Y-109189286D01*
X152542857Y-109046429D01*
X152614285Y-108975000D01*
X152757143Y-108903571D01*
X153042857Y-108903571D01*
X153185714Y-108975000D01*
X154471428Y-109832143D02*
X154328571Y-109903571D01*
X154042857Y-109903571D01*
X153900000Y-109832143D01*
X153828571Y-109689286D01*
X153828571Y-109117857D01*
X153900000Y-108975000D01*
X154042857Y-108903571D01*
X154328571Y-108903571D01*
X154471428Y-108975000D01*
X154542857Y-109117857D01*
X154542857Y-109260714D01*
X153828571Y-109403571D01*
X156328571Y-108403571D02*
X156328571Y-109617857D01*
X156399999Y-109760714D01*
X156471428Y-109832143D01*
X156614285Y-109903571D01*
X156899999Y-109903571D01*
X157042857Y-109832143D01*
X157114285Y-109760714D01*
X157185714Y-109617857D01*
X157185714Y-108403571D01*
X157900000Y-108903571D02*
X157900000Y-110403571D01*
X157900000Y-108975000D02*
X158042857Y-108903571D01*
X158328571Y-108903571D01*
X158471428Y-108975000D01*
X158542857Y-109046429D01*
X158614286Y-109189286D01*
X158614286Y-109617857D01*
X158542857Y-109760714D01*
X158471428Y-109832143D01*
X158328571Y-109903571D01*
X158042857Y-109903571D01*
X157900000Y-109832143D01*
X160257143Y-110403571D02*
X160614286Y-110403571D01*
X160614286Y-108260714D01*
X160257143Y-108260714D01*
X140161428Y-94500000D02*
X140018571Y-94428571D01*
X139804285Y-94428571D01*
X139590000Y-94500000D01*
X139447142Y-94642857D01*
X139375714Y-94785714D01*
X139304285Y-95071429D01*
X139304285Y-95285714D01*
X139375714Y-95571429D01*
X139447142Y-95714286D01*
X139590000Y-95857143D01*
X139804285Y-95928571D01*
X139947142Y-95928571D01*
X140161428Y-95857143D01*
X140232857Y-95785714D01*
X140232857Y-95285714D01*
X139947142Y-95285714D01*
X141447142Y-95857143D02*
X141304285Y-95928571D01*
X141018571Y-95928571D01*
X140875714Y-95857143D01*
X140804285Y-95714286D01*
X140804285Y-95142857D01*
X140875714Y-95000000D01*
X141018571Y-94928571D01*
X141304285Y-94928571D01*
X141447142Y-95000000D01*
X141518571Y-95142857D01*
X141518571Y-95285714D01*
X140804285Y-95428571D01*
X141947142Y-94928571D02*
X142518571Y-94928571D01*
X142161428Y-94428571D02*
X142161428Y-95714286D01*
X142232856Y-95857143D01*
X142375714Y-95928571D01*
X142518571Y-95928571D01*
X142804285Y-94928571D02*
X143375714Y-94928571D01*
X143018571Y-94428571D02*
X143018571Y-95714286D01*
X143089999Y-95857143D01*
X143232857Y-95928571D01*
X143375714Y-95928571D01*
X143875714Y-95928571D02*
X143875714Y-94928571D01*
X143875714Y-94428571D02*
X143804285Y-94500000D01*
X143875714Y-94571429D01*
X143947142Y-94500000D01*
X143875714Y-94428571D01*
X143875714Y-94571429D01*
X144590000Y-94928571D02*
X144590000Y-95928571D01*
X144590000Y-95071429D02*
X144661428Y-95000000D01*
X144804286Y-94928571D01*
X145018571Y-94928571D01*
X145161428Y-95000000D01*
X145232857Y-95142857D01*
X145232857Y-95928571D01*
X146590000Y-94928571D02*
X146590000Y-96142857D01*
X146518571Y-96285714D01*
X146447143Y-96357143D01*
X146304286Y-96428571D01*
X146090000Y-96428571D01*
X145947143Y-96357143D01*
X146590000Y-95857143D02*
X146447143Y-95928571D01*
X146161429Y-95928571D01*
X146018571Y-95857143D01*
X145947143Y-95785714D01*
X145875714Y-95642857D01*
X145875714Y-95214286D01*
X145947143Y-95071429D01*
X146018571Y-95000000D01*
X146161429Y-94928571D01*
X146447143Y-94928571D01*
X146590000Y-95000000D01*
X148232857Y-94928571D02*
X148804286Y-94928571D01*
X148447143Y-94428571D02*
X148447143Y-95714286D01*
X148518571Y-95857143D01*
X148661429Y-95928571D01*
X148804286Y-95928571D01*
X149518572Y-95928571D02*
X149375714Y-95857143D01*
X149304286Y-95785714D01*
X149232857Y-95642857D01*
X149232857Y-95214286D01*
X149304286Y-95071429D01*
X149375714Y-95000000D01*
X149518572Y-94928571D01*
X149732857Y-94928571D01*
X149875714Y-95000000D01*
X149947143Y-95071429D01*
X150018572Y-95214286D01*
X150018572Y-95642857D01*
X149947143Y-95785714D01*
X149875714Y-95857143D01*
X149732857Y-95928571D01*
X149518572Y-95928571D01*
X152304286Y-95142857D02*
X152518572Y-95214286D01*
X152590000Y-95285714D01*
X152661429Y-95428571D01*
X152661429Y-95642857D01*
X152590000Y-95785714D01*
X152518572Y-95857143D01*
X152375714Y-95928571D01*
X151804286Y-95928571D01*
X151804286Y-94428571D01*
X152304286Y-94428571D01*
X152447143Y-94500000D01*
X152518572Y-94571429D01*
X152590000Y-94714286D01*
X152590000Y-94857143D01*
X152518572Y-95000000D01*
X152447143Y-95071429D01*
X152304286Y-95142857D01*
X151804286Y-95142857D01*
X153518572Y-95928571D02*
X153375714Y-95857143D01*
X153304286Y-95714286D01*
X153304286Y-94428571D01*
X154090000Y-95928571D02*
X154090000Y-94928571D01*
X154090000Y-94428571D02*
X154018571Y-94500000D01*
X154090000Y-94571429D01*
X154161428Y-94500000D01*
X154090000Y-94428571D01*
X154090000Y-94571429D01*
X154804286Y-94928571D02*
X154804286Y-95928571D01*
X154804286Y-95071429D02*
X154875714Y-95000000D01*
X155018572Y-94928571D01*
X155232857Y-94928571D01*
X155375714Y-95000000D01*
X155447143Y-95142857D01*
X155447143Y-95928571D01*
X156161429Y-95928571D02*
X156161429Y-94428571D01*
X156304286Y-95357143D02*
X156732857Y-95928571D01*
X156732857Y-94928571D02*
X156161429Y-95500000D01*
X157232858Y-94928571D02*
X157590001Y-95928571D01*
X157947143Y-94928571D02*
X157590001Y-95928571D01*
X157447143Y-96285714D01*
X157375715Y-96357143D01*
X157232858Y-96428571D01*
D13*
X145000000Y-104230000D02*
X145000000Y-98730000D01*
X147100000Y-104230000D02*
X147100000Y-98730000D01*
X145000000Y-104230000D02*
X147100000Y-104230000D01*
X155470000Y-93410000D02*
X155470000Y-92010000D01*
X155470000Y-92010000D02*
X152670000Y-92010000D01*
X155470000Y-93410000D02*
X152670000Y-93410000D01*
X145310000Y-93410000D02*
X145310000Y-92010000D01*
X145310000Y-92010000D02*
X142510000Y-92010000D01*
X145310000Y-93410000D02*
X142510000Y-93410000D01*
X156810000Y-105020000D02*
X155610000Y-105020000D01*
X155610000Y-103260000D02*
X156810000Y-103260000D01*
X160410000Y-99660000D02*
X160410000Y-98460000D01*
X162170000Y-98460000D02*
X162170000Y-99660000D01*
X136560000Y-108340000D02*
X137760000Y-108340000D01*
X137760000Y-110100000D02*
X136560000Y-110100000D01*
D14*
X151595000Y-96485000D02*
X151595000Y-96535000D01*
X155745000Y-96485000D02*
X155745000Y-96630000D01*
X155745000Y-101635000D02*
X155745000Y-101490000D01*
X151595000Y-101635000D02*
X151595000Y-101490000D01*
X151595000Y-96485000D02*
X155745000Y-96485000D01*
X151595000Y-101635000D02*
X155745000Y-101635000D01*
X151595000Y-96535000D02*
X150195000Y-96535000D01*
X138430000Y-102870000D02*
X138430000Y-100330000D01*
X142240000Y-106680000D02*
X134620000Y-106680000D01*
X134620000Y-106680000D02*
X134620000Y-96520000D01*
X134620000Y-96520000D02*
X142240000Y-96520000D01*
X142240000Y-96520000D02*
X142240000Y-106680000D01*
X143857143Y-100496666D02*
X143904762Y-100544285D01*
X143952381Y-100687142D01*
X143952381Y-100782380D01*
X143904762Y-100925238D01*
X143809524Y-101020476D01*
X143714286Y-101068095D01*
X143523810Y-101115714D01*
X143380952Y-101115714D01*
X143190476Y-101068095D01*
X143095238Y-101020476D01*
X143000000Y-100925238D01*
X142952381Y-100782380D01*
X142952381Y-100687142D01*
X143000000Y-100544285D01*
X143047619Y-100496666D01*
X143952381Y-99544285D02*
X143952381Y-100115714D01*
X143952381Y-99830000D02*
X142952381Y-99830000D01*
X143095238Y-99925238D01*
X143190476Y-100020476D01*
X143238095Y-100115714D01*
X149121905Y-93162381D02*
X149121905Y-92162381D01*
X149360000Y-92162381D01*
X149502858Y-92210000D01*
X149598096Y-92305238D01*
X149645715Y-92400476D01*
X149693334Y-92590952D01*
X149693334Y-92733810D01*
X149645715Y-92924286D01*
X149598096Y-93019524D01*
X149502858Y-93114762D01*
X149360000Y-93162381D01*
X149121905Y-93162381D01*
X150645715Y-93162381D02*
X150074286Y-93162381D01*
X150360000Y-93162381D02*
X150360000Y-92162381D01*
X150264762Y-92305238D01*
X150169524Y-92400476D01*
X150074286Y-92448095D01*
X146581905Y-93162381D02*
X146581905Y-92162381D01*
X146820000Y-92162381D01*
X146962858Y-92210000D01*
X147058096Y-92305238D01*
X147105715Y-92400476D01*
X147153334Y-92590952D01*
X147153334Y-92733810D01*
X147105715Y-92924286D01*
X147058096Y-93019524D01*
X146962858Y-93114762D01*
X146820000Y-93162381D01*
X146581905Y-93162381D01*
X147534286Y-92257619D02*
X147581905Y-92210000D01*
X147677143Y-92162381D01*
X147915239Y-92162381D01*
X148010477Y-92210000D01*
X148058096Y-92257619D01*
X148105715Y-92352857D01*
X148105715Y-92448095D01*
X148058096Y-92590952D01*
X147486667Y-93162381D01*
X148105715Y-93162381D01*
X156043334Y-102892381D02*
X155710000Y-102416190D01*
X155471905Y-102892381D02*
X155471905Y-101892381D01*
X155852858Y-101892381D01*
X155948096Y-101940000D01*
X155995715Y-101987619D01*
X156043334Y-102082857D01*
X156043334Y-102225714D01*
X155995715Y-102320952D01*
X155948096Y-102368571D01*
X155852858Y-102416190D01*
X155471905Y-102416190D01*
X156995715Y-102892381D02*
X156424286Y-102892381D01*
X156710000Y-102892381D02*
X156710000Y-101892381D01*
X156614762Y-102035238D01*
X156519524Y-102130476D01*
X156424286Y-102178095D01*
X163442381Y-99226666D02*
X162966190Y-99560000D01*
X163442381Y-99798095D02*
X162442381Y-99798095D01*
X162442381Y-99417142D01*
X162490000Y-99321904D01*
X162537619Y-99274285D01*
X162632857Y-99226666D01*
X162775714Y-99226666D01*
X162870952Y-99274285D01*
X162918571Y-99321904D01*
X162966190Y-99417142D01*
X162966190Y-99798095D01*
X162537619Y-98845714D02*
X162490000Y-98798095D01*
X162442381Y-98702857D01*
X162442381Y-98464761D01*
X162490000Y-98369523D01*
X162537619Y-98321904D01*
X162632857Y-98274285D01*
X162728095Y-98274285D01*
X162870952Y-98321904D01*
X163442381Y-98893333D01*
X163442381Y-98274285D01*
X136993334Y-111372381D02*
X136660000Y-110896190D01*
X136421905Y-111372381D02*
X136421905Y-110372381D01*
X136802858Y-110372381D01*
X136898096Y-110420000D01*
X136945715Y-110467619D01*
X136993334Y-110562857D01*
X136993334Y-110705714D01*
X136945715Y-110800952D01*
X136898096Y-110848571D01*
X136802858Y-110896190D01*
X136421905Y-110896190D01*
X137326667Y-110372381D02*
X137945715Y-110372381D01*
X137612381Y-110753333D01*
X137755239Y-110753333D01*
X137850477Y-110800952D01*
X137898096Y-110848571D01*
X137945715Y-110943810D01*
X137945715Y-111181905D01*
X137898096Y-111277143D01*
X137850477Y-111324762D01*
X137755239Y-111372381D01*
X137469524Y-111372381D01*
X137374286Y-111324762D01*
X137326667Y-111277143D01*
X157988095Y-98512381D02*
X157988095Y-99321905D01*
X158035714Y-99417143D01*
X158083333Y-99464762D01*
X158178571Y-99512381D01*
X158369048Y-99512381D01*
X158464286Y-99464762D01*
X158511905Y-99417143D01*
X158559524Y-99321905D01*
X158559524Y-98512381D01*
X159559524Y-99512381D02*
X158988095Y-99512381D01*
X159273809Y-99512381D02*
X159273809Y-98512381D01*
X159178571Y-98655238D01*
X159083333Y-98750476D01*
X158988095Y-98798095D01*
X135493333Y-90622381D02*
X135493333Y-89622381D01*
X135493333Y-90098571D02*
X136064762Y-90098571D01*
X136064762Y-90622381D02*
X136064762Y-89622381D01*
X136731428Y-89622381D02*
X136921905Y-89622381D01*
X137017143Y-89670000D01*
X137112381Y-89765238D01*
X137160000Y-89955714D01*
X137160000Y-90289048D01*
X137112381Y-90479524D01*
X137017143Y-90574762D01*
X136921905Y-90622381D01*
X136731428Y-90622381D01*
X136636190Y-90574762D01*
X136540952Y-90479524D01*
X136493333Y-90289048D01*
X136493333Y-89955714D01*
X136540952Y-89765238D01*
X136636190Y-89670000D01*
X136731428Y-89622381D01*
X138064762Y-90622381D02*
X137588571Y-90622381D01*
X137588571Y-89622381D01*
X138398095Y-90098571D02*
X138731429Y-90098571D01*
X138874286Y-90622381D02*
X138398095Y-90622381D01*
X138398095Y-89622381D01*
X138874286Y-89622381D01*
X158353333Y-90622381D02*
X158353333Y-89622381D01*
X158353333Y-90098571D02*
X158924762Y-90098571D01*
X158924762Y-90622381D02*
X158924762Y-89622381D01*
X159591428Y-89622381D02*
X159781905Y-89622381D01*
X159877143Y-89670000D01*
X159972381Y-89765238D01*
X160020000Y-89955714D01*
X160020000Y-90289048D01*
X159972381Y-90479524D01*
X159877143Y-90574762D01*
X159781905Y-90622381D01*
X159591428Y-90622381D01*
X159496190Y-90574762D01*
X159400952Y-90479524D01*
X159353333Y-90289048D01*
X159353333Y-89955714D01*
X159400952Y-89765238D01*
X159496190Y-89670000D01*
X159591428Y-89622381D01*
X160924762Y-90622381D02*
X160448571Y-90622381D01*
X160448571Y-89622381D01*
X161258095Y-90098571D02*
X161591429Y-90098571D01*
X161734286Y-90622381D02*
X161258095Y-90622381D01*
X161258095Y-89622381D01*
X161734286Y-89622381D01*
X135826667Y-102004762D02*
X135969524Y-102052381D01*
X136207620Y-102052381D01*
X136302858Y-102004762D01*
X136350477Y-101957143D01*
X136398096Y-101861905D01*
X136398096Y-101766667D01*
X136350477Y-101671429D01*
X136302858Y-101623810D01*
X136207620Y-101576190D01*
X136017143Y-101528571D01*
X135921905Y-101480952D01*
X135874286Y-101433333D01*
X135826667Y-101338095D01*
X135826667Y-101242857D01*
X135874286Y-101147619D01*
X135921905Y-101100000D01*
X136017143Y-101052381D01*
X136255239Y-101052381D01*
X136398096Y-101100000D01*
X136731429Y-101052381D02*
X136969524Y-102052381D01*
X137160001Y-101338095D01*
X137350477Y-102052381D01*
X137588572Y-101052381D01*
X138493334Y-102052381D02*
X137921905Y-102052381D01*
X138207619Y-102052381D02*
X138207619Y-101052381D01*
X138112381Y-101195238D01*
X138017143Y-101290476D01*
X137921905Y-101338095D01*
M02*
